<?xml version="1.0" encoding="UTF-8"?>
<svg width="38px" height="41px" viewBox="0 0 38 41" version="1.1" xmlns="http://www.w3.org/2000/svg" xmlns:xlink="http://www.w3.org/1999/xlink">
    <title>Add manually</title>
    <g id="Page-1" stroke="none" stroke-width="1" fill="none" fill-rule="evenodd">
        <g id="Home-→-Add-Plant-Flyout" transform="translate(-40.000000, -761.000000)">
            <g id="Group-5" transform="translate(21.000000, 736.000000)">
                <g id="Add-manually" transform="translate(11.000000, 14.000000)">
                    <g id="Group" transform="translate(1.160000, 2.320000)" fill="#959595" fill-rule="nonzero">
                        <g id="Logo-Icon">
                            <path d="M22.6684655,13.1452022 C24.5266987,15.0338459 25.6687653,17.8939503 26.0946652,21.7255154 C26.8900399,19.6605295 28.0010964,17.8760652 29.4267226,16.3712111 C33.5491062,12.0197294 38.5377145,12.9197776 41.446592,14.3566818 L41.606038,14.4370322 L41.8582392,14.5708734 C41.9949709,14.645775 42.1259924,14.7214628 42.2509203,14.7973234 L42.4336942,14.9111672 L42.6405529,15.0474742 L42.8333389,15.182697 C43.5138138,15.6755541 43.9004708,16.1305124 43.8831112,16.3712111 L43.8817253,16.3884001 L43.8817253,16.3884001 L43.8800061,16.4061268 L43.8697316,16.4823378 L43.8538672,16.5668578 L43.8322082,16.6594504 L43.8045498,16.759879 L43.7513657,16.9246973 L43.7078132,17.0436815 L43.6575449,17.1696741 L43.6003558,17.3024386 L43.5360413,17.4417386 L43.4643967,17.5873374 L43.3852172,17.7389988 L43.2982981,17.8964861 L43.275335,17.9367406 L43.275335,17.9367406 L43.2518722,17.9773407 L43.1529597,18.1431236 L43.0457957,18.3141414 L43.0176915,18.357686 L43.0176915,18.357686 L42.9890555,18.4015394 L42.8691304,18.5799659 L42.8377879,18.6253074 L42.8377879,18.6253074 L42.8058944,18.6709353 L42.6727476,18.8562386 L42.5305303,19.0458307 L42.3790379,19.2394753 L42.3396915,19.2884919 L42.3396915,19.2884919 L42.2997495,19.3377433 L42.1339603,19.5370231 L42.0909918,19.587393 L42.0909918,19.587393 L42.0474084,19.6379757 L41.866862,19.8423585 L41.8201562,19.8939489 L41.8201562,19.8939489 L41.7728163,19.9457297 L41.5770519,20.1546836 L41.3708862,20.3663893 L41.1541146,20.5806103 L41.0982405,20.6345309 L41.0982405,20.6345309 L41.0416875,20.6885901 L40.808623,20.9061407 L40.7486277,20.9608382 L40.7486277,20.9608382 L40.6879343,21.0156522 L40.4381163,21.2360002 L40.3089357,21.3467775 L40.3089357,21.3467775 L40.1768733,21.4579176 L39.9040006,21.6811678 C39.5555559,21.9609652 39.1793742,22.2433322 38.7736562,22.5261906 L38.358026,22.8091357 L38.0110757,23.0354173 L37.8327148,23.1484519 L37.8327148,23.1484519 L37.6510625,23.2613764 L37.2777817,23.4867766 L36.8910286,23.7113813 C36.2613365,24.0699865 35.5791244,24.4246291 34.8406185,24.7709506 L34.2761251,25.0290633 L33.7893329,25.2414787 L33.3100244,25.444527 C30.8268508,26.5171897 28.8984434,27.9274517 27.5248022,29.6753129 C27.5266363,29.6897508 27.5268,29.7044563 27.5268,29.7192 L27.5268,41.412 C27.5268,42.4882925 26.6542925,43.3608 25.578,43.3608 C24.5017075,43.3608 23.6292,42.4882925 23.6292,41.412 L23.6292,29.7192 C23.6292,29.4977422 23.6661395,29.284912 23.734193,29.086535 C22.5429297,26.8042113 20.5759156,24.9620605 17.8342116,23.5606349 L17.6340434,23.4597852 C13.3878907,21.351158 10.7978226,18.7685165 9.26709448,16.5280419 L9.0849123,16.2554636 C8.93743827,16.0298327 8.80074082,15.8081114 8.67418592,15.591167 L8.52714789,15.3331819 L8.38960324,15.0801156 C8.36745672,15.0383663 8.34569562,14.9968358 8.32431485,14.9555311 L8.20055378,14.7104672 L8.08567741,14.4711546 L7.97944229,14.2379262 L7.88160495,14.011115 L7.79192192,13.791054 L7.75006219,13.6836589 L7.67215412,13.4743476 L7.60179169,13.2726189 L7.53873143,13.078806 L7.48272988,12.8932418 C7.47397099,12.8630203 7.46549606,12.8331564 7.45730003,12.803657 L7.41143004,12.6310901 L7.37201007,12.4676045 L7.33879668,12.313533 L7.31154638,12.1692087 L7.29001572,12.0349645 L7.27396121,11.9111335 L7.26791144,11.8532271 L7.25961468,11.7456402 L7.25618542,11.649299 L7.25738018,11.5645364 C7.27222453,11.2228001 7.92667365,10.7646986 8.98969062,10.3780827 L9.24214975,10.2902181 L9.50848329,10.2054044 C9.6450135,10.1638459 9.78651,10.1236238 9.93261788,10.0850268 L10.230877,10.0100851 C13.5263475,9.22354208 18.8755276,9.29019175 22.6684655,13.1452022 Z M31.7647551,18.1608631 L31.5488452,18.3816076 L31.4142066,18.5260491 C30.4935275,19.5299011 29.731517,20.6975051 29.132281,22.0328418 C31.3905172,19.2530199 34.1860074,17.4398775 37.3544324,17.1393631 C37.7562388,17.1012532 38.1128615,17.3960874 38.1509715,17.7978938 C38.1890815,18.1997003 37.8942472,18.556323 37.4924408,18.594433 C34.4857519,18.8796072 31.7906134,20.8005467 29.6498792,23.7592748 L29.4586158,24.029469 C29.4079852,24.1025508 29.3578899,24.1761043 29.3083598,24.2500288 C30.2541112,23.6526938 31.2900068,23.1188879 32.4131575,22.6495309 C35.515023,21.3532827 37.8044391,19.8334058 39.354807,18.2478827 L39.5818285,18.0095816 L39.7170361,17.8612962 C39.8638997,17.6973668 39.9995375,17.5363106 40.1239243,17.3791258 L40.3020632,17.1463766 L40.3509093,17.0785618 L40.2308391,17.0164255 C39.6652069,16.729422 39.0161876,16.4840687 38.3444329,16.3208684 C35.9428763,15.7374193 33.718045,16.2277664 31.7647551,18.1608631 Z M12.9664289,12.5561693 C12.2086227,12.6004004 11.4779793,12.7128107 10.8400243,12.8697162 L10.5993472,12.9321245 L10.6125358,12.9641206 C10.8302062,13.4697859 11.1156553,14.0079754 11.4693012,14.5596096 L11.6051159,14.7670654 C13.0832895,16.9789221 15.3882775,19.028036 18.644427,20.6955077 L18.9342059,20.8416416 C20.0446582,21.393089 21.0555129,22.0105141 21.9656428,22.6912107 C20.0374614,18.4707066 17.1567501,15.9223819 13.3260084,14.9986094 C12.9336458,14.9039923 12.6922754,14.5092172 12.7868926,14.1168547 C12.8815097,13.7244921 13.2762847,13.4831217 13.6686473,13.5777388 C17.893678,14.5965931 21.059177,17.3586788 23.1678272,21.817444 C22.8091949,18.834076 21.9629363,16.6561443 20.6744879,15.2885907 L20.5847432,15.1953728 C18.6415293,13.2203576 15.928869,12.3832598 12.9664289,12.5561693 Z" id="Combined-Shape"></path>
                        </g>
                    </g>
                    <path d="M37.7,38.28 C38.6609755,38.28 39.44,39.0590245 39.44,40.02 L39.439,42.919 L42.34,42.92 C43.3009755,42.92 44.08,43.6990245 44.08,44.66 C44.08,45.6209755 43.3009755,46.4 42.34,46.4 L39.439,46.399 L39.44,49.3 C39.44,50.2609755 38.6609755,51.04 37.7,51.04 C36.7390245,51.04 35.96,50.2609755 35.96,49.3 L35.959,46.399 L33.06,46.4 C32.0990245,46.4 31.32,45.6209755 31.32,44.66 C31.32,43.6990245 32.0990245,42.92 33.06,42.92 L35.959,42.919 L35.96,40.02 C35.96,39.0590245 36.7390245,38.28 37.7,38.28 Z" id="Combined-Shape" fill="#979797"></path>
                </g>
            </g>
        </g>
    </g>
</svg>