<?xml version="1.0" encoding="UTF-8"?>
<svg width="46px" height="47px" viewBox="0 0 46 47" version="1.1" xmlns="http://www.w3.org/2000/svg" xmlns:xlink="http://www.w3.org/1999/xlink">
    <title>Plant Cam</title>
    <g id="Page-1" stroke="none" stroke-width="1" fill="none" fill-rule="evenodd">
        <g id="Home-→-Add-Plant-Flyout" transform="translate(-38.000000, -653.000000)" fill="#FFFFFF" fill-rule="nonzero">
            <g id="Group-4" transform="translate(20.000000, 633.000000)">
                <g id="Plant-Cam" transform="translate(12.700787, 15.000000)">
                    <path d="M5.7,35.568 L9.347,35.568 L9.348,40.356 C9.348,44.3094418 12.492428,47.5284631 16.4167485,47.6485282 L16.644,47.652 L20.747,47.652 L20.747,51.3 L16.644,51.3 C10.5997957,51.3 5.7,46.4002043 5.7,40.356 L5.7,35.568 Z M51.3,35.568 L51.3,40.356 C51.3,46.4002043 46.4002043,51.3 40.356,51.3 L35.34,51.3 L35.34,47.652 L40.356,47.652 C44.3094418,47.652 47.5284631,44.507572 47.6485282,40.5832515 L47.652,40.356 L47.652,35.568 L51.3,35.568 Z M20.747,5.7 L20.747,9.347 L16.644,9.348 C12.6905582,9.348 9.47153691,12.492428 9.35147182,16.4167485 L9.348,16.644 L9.347,20.976 L5.7,20.976 L5.7,16.644 C5.7,10.5997957 10.5997957,5.7 16.644,5.7 L20.747,5.7 Z M40.356,5.7 C46.4002043,5.7 51.3,10.5997957 51.3,16.644 L51.3,20.975 L47.652,20.975 L47.652,16.644 C47.652,12.6905582 44.507572,9.47153691 40.5832515,9.35147182 L40.356,9.348 L35.34,9.347 L35.34,5.7 L40.356,5.7 Z" id="Combined-Shape"></path>
                    <g id="Logo-Icon" transform="translate(10.260000, 11.400000)">
                        <path d="M15.9125928,9.22754339 C17.2168615,10.5531569 18.0185227,12.5605439 18.3175764,15.2497045 C18.8756983,13.8016164 19.6557401,12.5486827 20.6566895,11.4921063 C23.5370838,8.4516365 27.019925,9.06353099 29.0658286,10.0639816 L29.2062089,10.1343699 L29.3832468,10.2283225 L29.5923276,10.3473742 L29.5923276,10.3473742 L29.7871991,10.4671987 L29.9324078,10.5628822 L30.0677379,10.6578045 C30.5454112,11.0037757 30.816833,11.323143 30.804647,11.4921063 L30.8036742,11.5041725 L30.8036742,11.5041725 L30.8024674,11.5166161 L30.7952549,11.570114 L30.7841186,11.6294445 L30.7689146,11.6944418 L30.7494993,11.7649397 L30.7121656,11.8806373 L30.681593,11.9641607 L30.6463061,12.0526038 L30.6061611,12.1458005 L30.5610142,12.2435849 L30.5107218,12.3457911 L30.4551402,12.4522528 L30.3941255,12.5628043 L30.3780061,12.5910617 L30.3780061,12.5910617 L30.3615359,12.6195618 L30.2921022,12.7359365 L30.2168763,12.8559859 L30.1770463,12.9173368 L30.0928625,13.0425869 L30.0708609,13.0744153 L30.0708609,13.0744153 L30.0484727,13.1064448 L29.9550075,13.2365222 L29.8551752,13.3696102 L29.748832,13.505543 L29.721212,13.5399512 L29.721212,13.5399512 L29.6931739,13.5745242 L29.5767948,13.7144127 L29.5466322,13.749771 L29.5466322,13.749771 L29.516038,13.7852785 L29.3892997,13.9287492 L29.3565136,13.9649641 L29.3565136,13.9649641 L29.3232824,14.0013127 L29.1858615,14.1479922 L29.0411393,14.2966033 L28.888972,14.4469801 L28.8497501,14.4848308 L28.8497501,14.4848308 L28.8100516,14.5227788 L28.6464472,14.6754928 L28.6043323,14.7138889 L28.6043323,14.7138889 L28.5617273,14.7523667 L28.3863624,14.9070445 L28.2956815,14.9848069 L28.2956815,14.9848069 L28.2029776,15.0628239 L28.011429,15.219539 C27.7668311,15.4159485 27.5027627,15.6141618 27.2179606,15.81272 L26.9262005,16.0113391 L26.6826517,16.1701821 L26.5574475,16.2495291 L26.5574475,16.2495291 L26.429933,16.3287987 L26.167901,16.487023 L25.8964117,16.6446889 C25.4543864,16.8964191 24.9754937,17.1453678 24.4570844,17.3884752 L24.0608267,17.5696627 L23.719113,17.718772 L23.3826526,17.8613059 C21.6388142,18.6145961 20.2847289,19.6050679 19.3203965,20.8327213 C19.3229032,20.8430242 19.323,20.8525008 19.323,20.862 L19.323,29.07 C19.323,29.8255255 18.7105255,30.438 17.955,30.438 C17.1994745,30.438 16.587,29.8255255 16.587,29.07 L16.587,20.862 C16.587,20.7077578 16.6125268,20.5594776 16.6595862,20.4211538 C15.8259499,18.8171499 14.4447158,17.5231558 12.5190894,16.5388693 L12.3785773,16.4680758 C9.39790355,14.9878818 7.57975231,13.1749439 6.50522642,11.6021969 L6.37733992,11.410855 C6.2738175,11.2524688 6.17785993,11.096827 6.08902214,10.9445384 L5.98580578,10.7634405 L5.88925351,10.5857955 C5.87370731,10.5564887 5.85843165,10.5273355 5.84342299,10.4983408 L5.75654637,10.3263132 L5.67590656,10.1583228 L5.60133265,9.99460336 L5.53265372,9.8353886 L5.46969889,9.68091228 C5.45967393,9.65557409 5.44988035,9.63044307 5.44031459,9.60552409 L5.38562543,9.45859373 L5.33623308,9.3169862 L5.29196665,9.18093525 L5.25265521,9.05067464 C5.24650673,9.02946005 5.24055758,9.00849647 5.23480421,8.98778876 L5.20260483,8.86665193 L5.17493318,8.75188983 L5.15161836,8.6437362 L5.13248945,8.5424248 L5.11737556,8.44818938 L5.10610578,8.3612637 C5.10453833,8.34739821 5.10312393,8.33384704 5.10185902,8.32061505 L5.09603494,8.24509226 L5.09362769,8.17746358 L5.09446638,8.11796277 C5.10488668,7.87807397 5.56429061,7.55650025 6.31049711,7.28510728 L6.48771596,7.22342894 L6.67467423,7.16389228 C6.7705144,7.1347194 6.86984076,7.1064847 6.97240418,7.07939075 L7.18177325,7.02678386 C9.49509617,6.47465393 13.2500625,6.52144002 15.9125928,9.22754339 Z M22.3310759,12.7158087 L22.1463568,12.9033452 L22.0518445,13.0047389 C21.4059546,13.7089778 20.8713075,14.5280236 20.4507804,15.4646656 C22.0364223,13.5142682 23.9982508,12.2422136 26.2217074,12.0313263 C26.5037637,12.0045743 26.7541023,12.2115392 26.7808544,12.4935954 C26.8076064,12.7756517 26.6006415,13.0259903 26.3185853,13.0527424 C24.2079785,13.2529262 22.316071,14.601369 20.8133389,16.6783087 L20.6790776,16.867977 C20.6438809,16.918781 20.6090527,16.9699098 20.5746134,17.0212946 C21.2383977,16.6030252 21.965151,16.2285708 22.7530785,15.8993013 C24.8964743,15.0035909 26.4872377,13.9557672 27.5745165,12.8616116 L27.7852737,12.642194 L27.8801854,12.538102 C27.9832793,12.4230284 28.078493,12.3099718 28.1658089,12.1996326 L28.2908572,12.0362495 L28.3251457,11.9886456 L28.24086,11.9450278 C27.8438029,11.7435598 27.3882105,11.571329 26.9166586,11.4567672 C25.2444102,11.0505008 23.6942282,11.3859184 22.3310759,12.7158087 Z M9.10204981,8.81405974 C8.57009232,8.84510864 8.05720224,8.92401738 7.60937669,9.03416042 L7.44042846,9.07796916 L7.44968646,9.10042952 C7.60248463,9.4553916 7.80286148,9.83318474 8.05111042,10.2204156 L8.14644835,10.3660434 C9.18408251,11.9187014 10.802116,13.3571189 13.0878367,14.5276347 L13.2912529,14.6302164 C14.0713377,15.0176043 14.7814038,15.4513755 15.4206583,15.9296261 C14.065929,12.9660877 12.0436799,11.1770773 9.35446401,10.5285805 C9.07903709,10.4621621 8.90960222,10.1850416 8.97602065,9.90961472 C9.04243907,9.6341878 9.31955948,9.46475293 9.59498641,9.53117135 C12.5608273,10.2463755 14.7829111,12.1852719 16.2631213,15.3151824 C16.0112745,13.2206917 15.4172514,11.6920353 14.5128794,10.7321388 L14.4498813,10.6667026 C13.0858026,9.2803003 11.1815953,8.69268237 9.10204981,8.81405974 Z" id="Combined-Shape"></path>
                    </g>
                </g>
            </g>
        </g>
    </g>
</svg>