<?xml version="1.0" encoding="UTF-8"?>
<svg width="79px" height="15px" viewBox="0 0 79 15" version="1.1" xmlns="http://www.w3.org/2000/svg" xmlns:xlink="http://www.w3.org/1999/xlink">
    <title>Group 8</title>
    <defs>
        <linearGradient x1="50%" y1="100%" x2="50%" y2="-19.9635225%" id="linearGradient-1">
            <stop stop-color="#67C53F" offset="0%"></stop>
            <stop stop-color="#A8EB12" offset="100%"></stop>
        </linearGradient>
    </defs>
    <g id="Page-1" stroke="none" stroke-width="1" fill="none" fill-rule="evenodd">
        <g id="Group-8">
            <path d="M24.4319179,12.3242321 C25.9522645,12.3242321 27.5168931,11.6393629 28.5353777,10.4926052 L28.5353777,5.98521047 L24.0481411,5.98521047 L24.0481411,7.81683732 L26.4098446,7.81683732 L26.4098446,9.48919226 C25.8341793,9.93515358 25.1256683,10.1899886 24.4319179,10.1899886 C22.7049223,10.1899886 21.2436183,8.56541524 21.2436183,6.65415245 C21.2436183,4.75881684 22.7049223,3.13424346 24.4319179,3.13424346 C25.3618387,3.13424346 26.350802,3.61205916 26.9559885,4.36063709 L28.5353777,2.83162685 C27.5168931,1.68486917 25.9522645,1 24.4319179,1 C21.4945493,1 19,3.58020478 19,6.65415245 C19,9.72810011 21.4945493,12.3242321 24.4319179,12.3242321 Z M32.0143832,12.3242321 C32.8409794,12.3242321 33.7118575,11.9738339 34.2580015,11.3048919 L34.2580015,12.1331058 L36.3392526,12.1331058 L36.3392526,7.2116041 C36.3392526,5.06143345 34.9812731,3.7076223 32.9885859,3.7076223 C31.9258193,3.7076223 30.8778134,4.0261661 29.8002862,4.61547213 L30.5235579,6.16040956 C31.1287444,5.82593857 31.7929735,5.57110353 32.5014845,5.57110353 C33.7561395,5.57110353 34.2580015,6.33560865 34.2580015,7.2116041 L34.2580015,7.370876 C33.608533,7.10011377 32.9295433,6.95676906 32.3095961,6.95676906 C30.5383185,6.95676906 29.1360571,8.07167235 29.1360571,9.69624573 C29.1360571,11.2730375 30.3907121,12.3242321 32.0143832,12.3242321 Z M32.5014845,10.7155859 C31.7634522,10.7155859 31.2173083,10.301479 31.2173083,9.63253697 C31.2173083,8.96359499 31.8372554,8.4698521 32.6195697,8.4698521 C33.2099955,8.4698521 33.7709001,8.58134243 34.2580015,8.77246871 L34.2580015,9.53697383 C34.110395,10.301479 33.3280807,10.7155859 32.5014845,10.7155859 Z M39.5820878,12.1331058 L39.5820878,8.19908987 C39.5820878,6.65415245 40.726523,5.42775882 46.3859517,5.66228273 L45.901215,3.69739496 C41.096056,3.69739496 40.0839498,4.36063709 39.5820878,5.42775882 L39.5820878,3.89874858 L37.4270334,3.89874858 L37.4270334,12.1331058 L39.5820878,12.1331058 Z M45.8360949,12.3242321 C46.913622,12.3242321 47.7992608,11.814562 48.4044473,10.9544937 L48.4044473,12.1331058 L50.5595017,12.1331058 L50.5595017,1 L48.4044473,1 L48.4044473,5.07736064 C47.7992608,4.21729238 46.913622,3.7076223 45.8360949,3.7076223 C43.7991256,3.7076223 42.323061,5.49146758 42.323061,8.00796359 C42.323061,10.5403868 43.7991256,12.3242321 45.8360949,12.3242321 Z M46.456042,10.3651877 C45.2604296,10.3651877 44.4190728,9.39362912 44.4190728,8.00796359 C44.4190728,6.63822526 45.2604296,5.66666667 46.456042,5.66666667 C47.5926118,5.66666667 48.4044473,6.63822526 48.4044473,8.00796359 C48.4044473,9.39362912 47.5926118,10.3651877 46.456042,10.3651877 Z M55.3374442,12.3242321 C56.4592533,12.3242321 57.7729508,11.814562 58.4519406,11.0500569 L57.0792004,9.53697383 C56.6659023,9.96700796 55.92787,10.2696246 55.3226835,10.2696246 C54.4222841,10.2696246 53.758055,9.66439135 53.507124,8.77246871 L59.0128451,8.77246871 C59.0128451,5.66666667 57.6105837,3.7076223 55.219359,3.7076223 C52.9905014,3.7076223 51.293027,5.50739477 51.293027,7.99203641 C51.293027,10.5244596 53.0643046,12.3242321 55.3374442,12.3242321 Z M56.9463546,7.10011377 L53.5366453,7.10011377 C53.8170976,6.27189989 54.4960873,5.76222981 55.3079229,5.76222981 C56.178801,5.76222981 56.7397056,6.28782708 56.9463546,7.10011377 Z M61.8571429,12.1331058 L61.8571429,7.2116041 L61.8719035,7.25938567 C61.8719035,6.36746303 62.5656539,5.66666667 63.4660533,5.66666667 C64.3221708,5.66666667 64.9125967,6.36746303 64.9125967,7.38680319 L64.9125967,12.1331058 L66.9938479,12.1331058 L66.9938479,6.8930603 C66.9938479,5.02957907 65.8129961,3.7076223 64.1598037,3.7076223 C63.1708404,3.7076223 62.3147229,4.185438 61.8571429,4.93401593 L61.8571429,3.89874858 L59.7020885,3.89874858 L59.7020885,12.1331058 L61.8571429,12.1331058 Z M70.236683,12.1331058 L70.236683,1 L68.0816286,1 L68.0816286,12.1331058 L70.236683,12.1331058 Z M73.1252627,15 C74.320875,15 75.2950777,14.1558589 75.8707429,12.5472127 L79,3.89874858 L76.8006637,3.89874858 L74.8965403,9.68031854 L72.8890923,3.89874858 L70.6602347,3.89874858 L73.8337737,12.2127418 L73.5680821,12.817975 C73.405715,13.1205916 73.0809807,13.2639363 72.6676826,13.2639363 C72.4167516,13.2639363 72.0329748,13.1205916 71.6639587,12.8976109 L71.2063786,14.4903299 C71.7230013,14.7929465 72.4905549,15 73.1252627,15 Z" id="Gardenly" fill="#87D829" fill-rule="nonzero"></path>
            <g id="Group">
                <circle id="Oval" fill="url(#linearGradient-1)" cx="7" cy="7" r="7"></circle>
                <g transform="translate(1.984252, 2.204724)" fill="#FFFFFF" fill-rule="nonzero" id="Logo-Icon">
                    <g>
                        <path d="M4.4110056,2.55789525 C4.77301663,2.9258307 4.99534524,3.48324161 5.07799142,4.23012796 C5.23145674,3.82732995 5.44801851,3.47915117 5.7260796,3.18563706 C6.50009878,2.3686024 7.43105366,2.50299808 8.00394666,2.76462782 L8.09602513,2.80926955 L8.1451004,2.8353134 L8.20305809,2.86831481 L8.20305809,2.86831481 L8.25707689,2.90153042 L8.29732906,2.92805409 L8.33484286,2.95436677 C8.46725493,3.05027073 8.54249364,3.13880005 8.53911567,3.18563706 L8.538846,3.18898182 L8.53851146,3.19243123 L8.53651217,3.20726096 L8.53342515,3.22370752 L8.52921057,3.2417249 L8.5238286,3.26126708 L8.51347961,3.29333869 L8.50500484,3.31649156 L8.49522323,3.34100818 L8.48409494,3.36684252 L8.47158013,3.39394858 L8.44223161,3.45179178 L8.42531821,3.48243689 L8.42084987,3.49026991 L8.41628429,3.49817019 L8.39703714,3.53042952 L8.37618435,3.56370748 L8.3707156,3.57218074 L8.3707156,3.57218074 L8.36514339,3.58071406 L8.34180744,3.61543368 L8.33570856,3.62425657 L8.33570856,3.62425657 L8.32950249,3.63313521 L8.30359375,3.66919296 L8.27592001,3.70608526 L8.24644143,3.74376612 L8.23878511,3.75330415 L8.23878511,3.75330415 L8.23101288,3.76288787 L8.19875235,3.80166527 L8.19039121,3.81146665 L8.19039121,3.81146665 L8.18191041,3.82130941 L8.14677829,3.86107981 L8.12847815,3.88119457 L8.09038479,3.92185445 L8.05026748,3.96304978 L8.00808637,4.00473456 L7.99721396,4.01522684 L7.99721396,4.01522684 L7.98620944,4.02574611 L7.94085795,4.06807878 L7.9291836,4.07872224 L7.9291836,4.07872224 L7.91737341,4.08938839 L7.86876188,4.13226541 L7.84362492,4.15382131 L7.84362492,4.15382131 L7.8179272,4.1754478 L7.76482952,4.21888957 L7.62192327,4.32832672 L7.62192327,4.32832672 L7.46400181,4.4383783 L7.39648952,4.48240992 L7.32643537,4.52637879 L7.2537995,4.5702389 L7.17854208,4.61394423 C7.07643344,4.67209437 6.96722776,4.72970906 6.85050007,4.78629746 L6.66971391,4.870349 L6.5749901,4.91168244 L6.48172255,4.95119314 C5.99820093,5.16006119 5.62277594,5.43471071 5.35544757,5.77514171 C5.35634856,5.77748759 5.35637795,5.78023642 5.35637795,5.78299213 L5.35637795,8.05826772 C5.35637795,8.26770105 5.18659869,8.43748031 4.97716535,8.43748031 C4.76773202,8.43748031 4.59795276,8.26770105 4.59795276,8.05826772 L4.59795276,5.78299213 C4.59795276,5.74095797 4.60479184,5.70052117 4.61741796,5.66273376 L4.68056185,5.78875773 C4.45785717,5.28456882 4.0544429,4.88318651 3.47031902,4.58461082 L3.43136875,4.5649867 C2.60511946,4.15467369 2.10112395,3.65212332 1.80326302,3.2161544 L1.7678126,3.16311402 C1.73911596,3.11920901 1.71251631,3.07606477 1.68789028,3.03385003 L1.65927848,2.9836493 L1.63251398,2.9344057 C1.62820454,2.9262818 1.62397009,2.91820047 1.61980966,2.91016307 L1.59572727,2.86247665 L1.57337374,2.81590935 L1.55270169,2.77052596 L1.53366374,2.72639128 L1.51621252,2.6835701 C1.51343358,2.6765463 1.51071878,2.66957993 1.50806713,2.66267233 L1.49290717,2.62194291 L1.47921551,2.582689 L1.46694475,2.54497537 L1.45604754,2.50886685 C1.45434316,2.50298612 1.45269405,2.49717497 1.4510992,2.49143474 L1.44217346,2.45785535 L1.43450282,2.42604304 L1.4280399,2.39606262 L1.42273733,2.36797888 L1.41854772,2.34185661 L1.41542371,2.31776062 C1.41498921,2.31391708 1.41459714,2.31016067 1.4142465,2.30649273 L1.41263205,2.28555765 L1.41219725,2.25031707 C1.41508578,2.18381937 1.54243355,2.09467843 1.74928363,2.01944771 L1.79840908,2.00235033 L1.85023433,1.98584664 C1.87680143,1.97775986 1.90433492,1.96993313 1.93276572,1.96242263 L1.99080329,1.94783989 C2.63206147,1.79478826 3.67294637,1.80775747 4.4110056,2.55789525 Z M6.25774838,3.46237196 L6.13901865,3.57683557 L6.11281964,3.60494212 C5.93441458,3.79946407 5.78662726,4.02558468 5.6702467,4.28406891 C6.11001598,3.74523132 6.65320147,3.39348938 7.26871478,3.33511003 C7.34690139,3.3276943 7.4162958,3.38506543 7.42371153,3.46325204 C7.43112727,3.54143865 7.37375614,3.61083306 7.29556953,3.61824879 C6.7105047,3.6737402 6.18606378,4.04753149 5.76950316,4.62326372 L5.73228564,4.67584019 L5.70319027,4.71836172 C5.88731026,4.60240534 6.08877709,4.49859995 6.30720324,4.40732116 C6.86174698,4.17558115 7.28284441,3.90710973 7.58157227,3.62574745 L7.70213877,3.50444389 L7.72844851,3.47558937 L7.78906044,3.4048428 L7.78906044,3.4048428 L7.84228762,3.33647476 L7.85179247,3.32327884 L7.82842828,3.31118788 C7.71836318,3.25534051 7.59207198,3.20759776 7.46135675,3.17584099 C7.0251975,3.06987774 6.61899452,3.14593107 6.25774838,3.46237196 Z M2.52310816,2.44327668 C2.37564838,2.4518835 2.23347412,2.47375718 2.1093359,2.50428907 L2.06250308,2.51643295 L2.06506942,2.52265901 C2.1074254,2.62105528 2.1629703,2.72578036 2.23178545,2.83312161 L2.25821334,2.87348996 C2.5458478,3.30389016 2.99437024,3.70262263 3.62797703,4.02709219 L3.68436445,4.05552805 C3.90091978,4.16306881 4.09800935,4.28350452 4.27541238,4.41630508 C3.89930927,3.59440746 3.3386694,3.09834287 2.59307793,2.91854559 C2.51672898,2.90013425 2.46976126,2.82331587 2.4881726,2.74696692 C2.50658393,2.67061797 2.58340232,2.62365026 2.65975126,2.64206159 C3.48016616,2.83990233 4.09527308,3.37553316 4.50559083,4.2399525 C4.43704988,3.66143822 4.27269931,3.24000005 4.02300199,2.9749724 L4.00553878,2.95683334 C3.62741316,2.57251958 3.09956271,2.40963061 2.52310816,2.44327668 Z" id="Combined-Shape"></path>
                    </g>
                </g>
            </g>
        </g>
    </g>
</svg>