<?xml version="1.0" encoding="UTF-8"?>
<svg width="343px" height="65px" viewBox="0 0 343 65" version="1.1" xmlns="http://www.w3.org/2000/svg" xmlns:xlink="http://www.w3.org/1999/xlink">
    <title>Group 8</title>
    <defs>
        <linearGradient x1="50%" y1="100%" x2="50%" y2="-19.9635225%" id="linearGradient-1">
            <stop stop-color="#67C53F" offset="0%"></stop>
            <stop stop-color="#A8EB12" offset="100%"></stop>
        </linearGradient>
    </defs>
    <g id="Page-1" stroke="none" stroke-width="1" fill="none" fill-rule="evenodd">
        <g id="Login/Reg-1" transform="translate(-36.000000, -89.000000)">
            <g id="Group-8" transform="translate(36.000000, 89.000000)">
                <path d="M107.447779,54.2969283 C114.010609,54.2969283 120.764588,51.5574516 125.161047,46.9704209 L125.161047,28.9408419 L105.791142,28.9408419 L105.791142,36.2673493 L115.985829,36.2673493 L115.985829,42.9567691 C113.500874,44.7406143 110.442468,45.7599545 107.447779,45.7599545 C99.9929145,45.7599545 93.6849522,39.261661 93.6849522,31.6166098 C93.6849522,24.0352673 99.9929145,17.5369738 107.447779,17.5369738 C111.461937,17.5369738 115.730962,19.4482366 118.34335,22.4425484 L125.161047,16.3265074 C120.764588,11.7394767 114.010609,9 107.447779,9 C94.7681377,9 84,19.3208191 84,31.6166098 C84,43.9124005 94.7681377,54.2969283 107.447779,54.2969283 Z M140.178754,54.2969283 C143.746894,54.2969283 147.506185,52.8953356 149.863706,50.2195677 L149.863706,53.5324232 L158.847774,53.5324232 L158.847774,33.8464164 C158.847774,25.2457338 152.985829,19.8304892 144.384062,19.8304892 C139.796453,19.8304892 135.272561,21.1046644 130.621235,23.4618885 L133.743358,29.6416382 C136.355747,28.3037543 139.223002,27.2844141 142.281408,27.2844141 C147.697335,27.2844141 149.863706,30.3424346 149.863706,33.8464164 L149.863706,34.483504 C147.060167,33.4004551 144.129195,32.8270762 141.45309,32.8270762 C133.807075,32.8270762 127.75398,37.2866894 127.75398,43.7849829 C127.75398,50.0921502 133.169907,54.2969283 140.178754,54.2969283 Z M142.281408,47.8623436 C139.095569,47.8623436 136.738047,46.2059158 136.738047,43.5301479 C136.738047,40.85438 139.414153,38.8794084 142.791142,38.8794084 C145.339814,38.8794084 147.761052,39.3253697 149.863706,40.0898749 L149.863706,43.1478953 C149.226538,46.2059158 145.849548,47.8623436 142.281408,47.8623436 Z M172.846012,53.5324232 L172.846012,37.7963595 C172.846012,31.6166098 177.786158,26.7110353 202.216025,27.6491309 L200.123578,19.7895798 C179.381308,19.7895798 175.012383,22.4425484 172.846012,26.7110353 L172.846012,20.5949943 L163.543361,20.5949943 L163.543361,53.5324232 L172.846012,53.5324232 Z M199.842476,54.2969283 C204.493802,54.2969283 208.316809,52.258248 210.929198,48.817975 L210.929198,53.5324232 L220.231849,53.5324232 L220.231849,9 L210.929198,9 L210.929198,25.3094425 C208.316809,21.8691695 204.493802,19.8304892 199.842476,19.8304892 C191.049559,19.8304892 184.67788,26.9658703 184.67788,37.0318544 C184.67788,47.1615472 191.049559,54.2969283 199.842476,54.2969283 Z M202.518581,46.4607509 C197.357521,46.4607509 193.725664,42.5745165 193.725664,37.0318544 C193.725664,31.552901 197.357521,27.6666667 202.518581,27.6666667 C207.424774,27.6666667 210.929198,31.552901 210.929198,37.0318544 C210.929198,42.5745165 207.424774,46.4607509 202.518581,46.4607509 Z M240.856634,54.2969283 C245.69911,54.2969283 251.369904,52.258248 254.300877,49.2002275 L248.375215,43.1478953 C246.591145,44.8680319 243.405306,46.0784983 240.792917,46.0784983 C236.906193,46.0784983 234.038937,43.6575654 232.955752,40.0898749 L256.722115,40.0898749 C256.722115,27.6666667 250.66902,19.8304892 240.3469,19.8304892 C230.725664,19.8304892 223.398233,27.0295791 223.398233,36.9681456 C223.398233,47.0978385 231.044248,54.2969283 240.856634,54.2969283 Z M247.801764,33.4004551 L233.083185,33.4004551 C234.293804,30.0875995 237.224777,28.0489192 240.7292,28.0489192 C244.488491,28.0489192 246.909729,30.1513083 247.801764,33.4004551 Z M269,53.5324232 L269,33.8464164 L269.063717,34.0375427 C269.063717,30.4698521 272.058406,27.6666667 275.94513,27.6666667 C279.640704,27.6666667 282.189376,30.4698521 282.189376,34.5472127 L282.189376,53.5324232 L291.173443,53.5324232 L291.173443,32.5722412 C291.173443,25.1183163 286.0761,19.8304892 278.939819,19.8304892 C274.670794,19.8304892 270.975221,21.741752 269,24.7360637 L269,20.5949943 L259.697349,20.5949943 L259.697349,53.5324232 L269,53.5324232 Z M305.171682,53.5324232 L305.171682,9 L295.86903,9 L295.86903,53.5324232 L305.171682,53.5324232 Z M317.640717,65 C322.801777,65 327.007085,61.6234357 329.49204,55.188851 L343,20.5949943 L333.506198,20.5949943 L325.286732,43.7212742 L316.621249,20.5949943 L307.000013,20.5949943 L320.699123,53.850967 L319.552221,56.2718999 C318.851336,57.4823663 317.449567,58.0557452 315.665497,58.0557452 C314.582311,58.0557452 312.925675,57.4823663 311.332755,56.5904437 L309.357534,62.9613197 C311.587622,64.1717861 314.900895,65 317.640717,65 Z" id="Gardenly" fill="#87D829" fill-rule="nonzero"></path>
                <g id="Group">
                    <circle id="Oval" fill="url(#linearGradient-1)" cx="31" cy="31" r="31"></circle>
                    <g transform="translate(8.787402, 9.763780)" fill="#FFFFFF" fill-rule="nonzero" id="Logo-Icon">
                        <g>
                            <path d="M19.5344534,11.3278218 C21.1355327,12.9551033 22.1196475,15.4192807 22.4867978,18.7203539 C23.1722897,16.9425176 24.1297693,15.404682 25.3583525,14.1078213 C28.9042204,10.3648947 33.1937916,11.1307061 35.7024791,12.3649349 L35.8538256,12.4410509 L36.0711589,12.5563879 C36.1889869,12.620934 36.301894,12.6861577 36.4095502,12.7515302 L36.5670548,12.8496347 L36.7453144,12.9670967 L36.9114469,13.0836243 C37.4978433,13.5083418 37.8310433,13.9004002 37.8160837,14.1078213 L37.8148894,14.1226338 L37.8148894,14.1226338 L37.8134079,14.1379097 L37.8045539,14.2035842 L37.7908828,14.276419 L37.7722182,14.3562103 L37.7483838,14.4427542 L37.7025526,14.5847856 L37.6650214,14.6873198 L37.6217029,14.7958934 L37.5724204,14.9103026 L37.5169977,15.0303437 L37.4552583,15.1558129 L37.3870257,15.2865065 L37.3121235,15.4222205 L37.2721162,15.4918966 L37.1868788,15.6347593 L37.0945307,15.7821331 L37.0703119,15.8196575 L37.0703119,15.8196575 L37.045635,15.857448 L36.9422901,16.0112063 L36.9152808,16.0502791 L36.9152808,16.0502791 L36.8877967,16.0895988 L36.773058,16.2492831 L36.6505029,16.4126633 L36.5199549,16.5795357 L36.4860484,16.6217755 L36.4860484,16.6217755 L36.4516285,16.6642177 L36.3087604,16.8359462 L36.2717325,16.8793523 L36.2717325,16.8793523 L36.2341747,16.9229417 L36.0785896,17.0990677 L36.038341,17.1435255 L36.038341,17.1435255 L35.9975461,17.1881474 L35.8288469,17.3682126 L35.6511845,17.550649 L35.4643825,17.7352531 L35.4162332,17.7817189 L35.4162332,17.7817189 L35.367499,17.8283042 L35.1666566,18.0157774 L35.1149559,18.0629128 L35.1149559,18.0629128 L35.0626537,18.1101486 L34.847374,18.3000325 L34.7360532,18.3954944 L34.7360532,18.3954944 L34.622249,18.4912688 L34.3871021,18.6836538 C34.0868314,18.924768 33.7626585,19.1680966 33.4130327,19.4118486 L33.0548651,19.6556753 L32.7558822,19.8506725 L32.6021804,19.9480796 L32.6021804,19.9480796 L32.4456423,20.0453918 L32.1239692,20.2396294 L31.7906863,20.4331816 C31.2480519,20.7422081 30.6601585,21.0478199 30.0237543,21.3462609 L29.5373045,21.5686884 L29.1178133,21.7517365 L28.7047713,21.9267125 C26.5646978,22.8511654 24.9027852,24.0665999 23.7190335,25.5730161 C23.7209667,25.5855127 23.7211024,25.5979374 23.7211024,25.6103937 L23.7211024,35.6866142 C23.7211024,36.6141047 22.9692228,37.3659843 22.0417323,37.3659843 C21.1142418,37.3659843 20.3623622,36.6141047 20.3623622,35.6866142 L20.3623622,25.6103937 C20.3623622,25.419904 20.3940778,25.2368218 20.4525165,25.0661396 C19.4261228,23.0982735 17.7311024,21.5108954 15.3685557,20.3032765 L15.1960616,20.2163697 C11.5369576,18.3992692 9.30497751,16.173689 7.9858791,14.2429695 L7.82888439,14.0080764 C7.70179927,13.8136399 7.58400082,13.6225725 7.47494268,13.4356215 L7.34823328,13.2133041 L7.22970477,12.9952253 L7.17344278,12.887865 L7.0667922,12.6766823 L6.96779798,12.4704557 L6.87625033,12.2694721 L6.79193941,12.0740185 L6.71465545,11.8843819 C6.70234871,11.8532765 6.69032601,11.8224254 6.678583,11.7918346 L6.61144605,11.6114615 L6.55081153,11.4376227 L6.49646962,11.2706052 L6.44821052,11.110696 C6.44066259,11.0846528 6.43335936,11.0589177 6.42629646,11.0334967 L6.38676819,10.884788 L6.3527982,10.7439049 L6.3241767,10.6111345 L6.30069387,10.4867636 L6.28213991,10.3710793 L6.26830502,10.2643685 C6.2663808,10.2473471 6.26464447,10.2307115 6.26309165,10.2144678 L6.25594195,10.1217553 L6.2529868,10.0387337 L6.25401638,9.9656899 C6.26680844,9.67120008 6.83077717,9.27643306 7.7468275,8.94326841 L7.96438308,8.86755148 L8.19389487,8.79446371 C8.3115492,8.75865079 8.4334832,8.7239896 8.55939104,8.6907288 L8.81641455,8.62614808 C11.6562722,7.94834801 16.2659054,8.00578307 19.5344534,11.3278218 Z M27.3875344,15.6358385 L27.1870826,15.8402718 L27.0710584,15.9647437 C26.2780097,16.8294354 25.6215749,17.8351178 25.1052877,18.9852169 C27.0514325,16.5906965 29.4600927,15.0286976 32.1900226,14.769773 C32.5362776,14.7369319 32.8435957,14.991004 32.8764368,15.337259 C32.9092779,15.683514 32.6552057,15.9908321 32.3089508,16.0236732 C29.7179494,16.2694209 27.3954253,17.9247823 25.5506568,20.4744536 L25.3858364,20.7072923 C25.3421991,20.7702797 25.2990233,20.8336738 25.2563346,20.8973876 C26.0719471,20.3823008 26.9643528,19.9224679 27.9319001,19.5181366 C30.5826443,18.4104088 32.5448838,17.1131685 33.8803036,15.7591811 L34.1094717,15.5196801 L34.2259863,15.3918958 C34.3525454,15.2506302 34.4694306,15.1118408 34.5766204,14.9763874 L34.7301309,14.7758168 L34.7722238,14.7173777 L34.6687538,14.663832 C34.1813227,14.416508 33.622033,14.2050758 33.0431513,14.0644387 C30.9795163,13.5630863 29.067307,13.9818082 27.3875344,15.6358385 Z M11.1737647,10.8202253 C10.5207285,10.8583412 9.89109968,10.9552104 9.34134468,11.090423 L9.1339422,11.1442031 L9.14530742,11.1717756 C9.33288393,11.6075305 9.57886849,12.071313 9.8836213,12.5466814 L10.0006591,12.7254555 C11.2744688,14.6315136 13.2607825,16.3973288 16.0667554,17.8342654 L16.3164711,17.9601957 C17.2729802,18.4351953 18.1437365,18.9670013 18.92777,19.5532844 C17.2666491,15.9165681 14.7843919,13.7209568 11.4836308,12.9249876 C11.1455141,12.8434517 10.9375142,12.503256 11.0190501,12.1651392 C11.100586,11.8270225 11.4407817,11.6190226 11.7788985,11.7005585 C15.4195458,12.5784903 18.1472741,14.9584342 19.9643947,18.8002825 C19.6554177,16.2293905 18.9262317,14.3531119 17.8161517,13.1748778 L17.7388146,13.0945476 C16.0642583,11.3925867 13.7266349,10.6712213 11.1737647,10.8202253 Z" id="Combined-Shape"></path>
                        </g>
                    </g>
                </g>
            </g>
        </g>
    </g>
</svg>