<?xml version="1.0" encoding="UTF-8"?>
<svg width="76px" height="69px" viewBox="0 0 76 69" version="1.1" xmlns="http://www.w3.org/2000/svg" xmlns:xlink="http://www.w3.org/1999/xlink">
    <g id="Logo-Icon-Copy" stroke="none" stroke-width="1" fill="none" fill-rule="evenodd">
        <path d="M32.5280491,6.98112104 C36.3412975,10.8567744 38.6852438,16.7254967 39.5598878,24.5872879 C41.1939434,20.3526434 43.4741066,16.6908065 46.3996769,13.60265 C54.919815,4.60901229 65.2426982,6.54460504 71.1947697,9.52933788 L71.3982718,9.63266053 L71.9159262,9.90737559 C72.1965741,10.0611144 72.4655016,10.2164671 72.7219218,10.3721744 L73.0970735,10.6058441 L73.5216604,10.8856203 L73.9173623,11.1631711 C75.3140678,12.1747826 76.1076987,13.1086051 76.0720673,13.60265 L76.0692228,13.6379312 L76.0692228,13.6379312 L76.065694,13.6743161 L76.0446051,13.8307426 L76.0120427,14.0042238 L75.9675866,14.1942742 L75.9108166,14.4004085 L75.8016537,14.7387055 L75.7122603,14.982926 L75.6090822,15.2415314 L75.4916991,15.5140366 L75.3596908,15.799956 L75.212637,16.0988043 L75.0501174,16.410096 L74.871712,16.733346 L74.7764207,16.8993035 L74.5733984,17.2395805 L74.3534395,17.5906021 L74.2957542,17.6799795 L74.2957542,17.6799795 L74.2369776,17.7699905 L73.990826,18.1362191 L73.926494,18.2292844 L73.926494,18.2292844 L73.8610312,18.3229379 L73.5877414,18.7032812 L73.295834,19.0924276 L72.9848889,19.4898918 L72.9041287,19.5905006 L72.9041287,19.5905006 L72.8221458,19.6915913 L72.4818562,20.100622 L72.3936614,20.2040087 L72.3936614,20.2040087 L72.3042045,20.3078318 L71.9336248,20.7273369 L71.837759,20.8332284 L71.837759,20.8332284 L71.7405917,20.9395109 L71.3387764,21.3683982 L70.9156121,21.8029338 L70.4706785,22.242632 L70.3559944,22.3533064 L70.3559944,22.3533064 L70.2399169,22.4642655 L69.7615415,22.9107977 L69.6383984,23.0230669 L69.6383984,23.0230669 L69.5138225,23.1355752 L69.0010597,23.5878494 L68.7359107,23.8152248 L68.7359107,23.8152248 L68.4648467,24.0433448 L67.9047632,24.501576 C67.1100981,25.1396834 66.2451476,25.7843025 65.3048449,26.4295814 L64.7315805,26.8167811 L64.0194493,27.2812342 L63.6533554,27.5132429 L63.6533554,27.5132429 L63.280506,27.7450255 L62.5143303,28.2076695 L61.720502,28.6686809 C60.3068613,29.4737391 58.7642611,30.2690678 57.0825664,31.0429607 L56.3532946,31.3732826 L55.3541315,31.8092749 L54.3703292,32.2260406 C49.274139,34.4274547 45.3163474,37.3216337 42.4969545,40.9085775 C42.4996595,40.9391608 42.5,40.9695407 42.5,41 L42.5,65 C42.5,67.209139 40.709139,69 38.5,69 C36.290861,69 34.5,67.209139 34.5,65 L34.5,41 C34.5,40.5447095 34.5760664,40.1071853 34.7161839,39.6994426 C32.2688647,35.015434 28.2319392,31.2352163 22.6055246,28.3592669 L22.1946704,28.1522684 C13.4792501,23.8242158 8.16301845,18.5232277 5.02112989,13.9245523 L4.64719274,13.3650732 C4.34449563,12.9019555 4.06391794,12.4468626 3.80415829,12.0015742 L3.5023561,11.4720483 L3.2200395,10.9526183 C3.17458277,10.8669259 3.12991711,10.7816827 3.08603213,10.6969028 L2.83200693,10.1938982 L2.59621801,9.70269828 L2.37816563,9.22398643 L2.17735007,8.7584462 L1.9932716,8.30676107 C1.96395885,8.23267278 1.93532265,8.15919026 1.9073526,8.08632775 L1.74744277,7.65670682 L1.60302071,7.24264971 L1.47358669,6.84483992 L1.35864097,6.46396093 C1.34066295,6.40192997 1.32326778,6.34063294 1.30644506,6.28008408 L1.21229482,5.92588285 L1.13138357,5.59032115 L1.06321157,5.27408247 L1.00727911,4.9778503 L0.963086444,4.70230814 L0.930133854,4.44813947 C0.925550665,4.40759712 0.921414992,4.36797381 0.917716421,4.32928378 L0.90068695,4.10845689 L0.89364823,3.91071222 L0.896100532,3.73673325 C0.92656923,3.03530402 2.2698556,2.09502998 4.45174593,1.30148328 L4.9699297,1.12113725 L5.51659131,0.947053464 C5.79682573,0.861752635 6.08725369,0.779195024 6.38714671,0.699972941 L6.99933698,0.546151646 C13.7634391,-1.06826338 24.7428728,-0.931461925 32.5280491,6.98112104 Z M51.030634,17.4442811 L50.7554293,17.7290796 L50.4790776,18.0255523 C48.5901409,20.0851332 47.0266033,22.4805383 45.7968819,25.2199279 C50.4323539,19.5164607 56.1694006,15.7960339 62.6716592,15.1793168 C63.4963851,15.1010943 64.2283693,15.7062549 64.3065917,16.5309808 C64.3848142,17.3557066 63.7796536,18.0876909 62.9549277,18.1659133 C56.7835629,18.7512463 51.2516694,22.6940614 46.857716,28.7669845 L46.4651392,29.3215701 C46.3614154,29.4712883 46.2587862,29.6219711 46.1573125,29.7734128 C48.0984409,28.5479585 50.2244291,27.4524455 52.5294694,26.489185 C59.0056165,23.7828477 63.7563583,20.6015886 66.9402571,17.2866826 L67.2434904,16.9654795 L67.52101,16.6611171 C67.8827431,16.2573499 68.2112962,15.8620754 68.5065806,15.4788328 L68.7218047,15.1937121 L68.8220635,15.0545193 L68.575614,14.9269818 C67.4146282,14.3378941 66.0824868,13.8342954 64.70368,13.4993194 C59.7054069,12.2850077 55.0800922,13.3368192 51.030634,17.4442811 Z M12.6141807,5.77210449 C11.0587495,5.86289075 9.55907088,6.09361806 8.24963944,6.41567373 L7.75563877,6.54376946 L7.78270896,6.60944303 C8.22948722,7.64734385 8.81538443,8.75200215 9.54125853,9.88425617 L9.8200244,10.3100685 C12.8540424,14.8500042 17.5851345,19.0559032 24.2685284,22.4784642 L24.8633127,22.7784105 C27.1425037,23.9102502 29.2172774,25.1775048 31.0853203,26.5746198 C27.1273842,17.9115965 21.2147315,12.6813421 13.352234,10.7853231 C12.5468921,10.5911171 12.0514685,9.78082354 12.2456744,8.97548165 C12.4398803,8.17013976 13.2501739,7.67471617 14.0555158,7.86892209 C22.7278772,9.96023756 29.225354,15.6298579 33.5534534,24.7822233 C32.817167,18.6584723 31.0801199,14.187702 28.43532,11.3805228 L28.251115,11.1891889 C24.2625807,7.135381 18.694723,5.41719992 12.6141807,5.77210449 Z" id="Combined-Shape" fill="#ffffff" fill-rule="nonzero"></path>
    </g>
</svg>