<?xml version="1.0" encoding="UTF-8"?>
<svg width="16px" height="18px" viewBox="0 0 16 18" version="1.1" xmlns="http://www.w3.org/2000/svg" xmlns:xlink="http://www.w3.org/1999/xlink">
    <title>Combined Shape</title>
    <g id="Page-1" stroke="none" stroke-width="1" fill="none" fill-rule="evenodd">
        <g id="Home-–-Neutral-Copy-4" transform="translate(-277.000000, -156.000000)" fill="#1B8AE5">
            <g id="Group-11" transform="translate(285.000000, 166.000000) rotate(-30.000000) translate(-285.000000, -166.000000) translate(281.000000, 157.000000)">
                <path d="M6,0 C7.1045695,-2.02906125e-16 8,0.8954305 8,2 L8,16 C8,17.1045695 7.1045695,18 6,18 C4.8954305,18 4,17.1045695 4,16 L4.00097133,7.49945313 C3.58297478,7.8137392 3.06323916,8 2.5,8 C1.11928813,8 4.54916439e-13,6.88071187 4.54747351e-13,5.5 L4.54747351e-13,2.5 C4.54578262e-13,1.11928813 1.11928813,2.53632657e-16 2.5,0 C3.24438379,-1.36741084e-16 3.91278173,0.325334106 4.37076259,0.841571086 C4.73171066,0.332371309 5.32704059,1.23620638e-16 6,0 Z" id="Combined-Shape"></path>
            </g>
        </g>
    </g>
</svg>